<svg width="32" height="32" viewBox="0 0 32 32" fill="none" xmlns="http://www.w3.org/2000/svg">
  <rect width="32" height="32" rx="6" fill="#8B5CF6"/>
  <path d="M16 8C18.2091 8 20 9.79086 20 12C20 14.2091 18.2091 16 16 16C13.7909 16 12 14.2091 12 12C12 9.79086 13.7909 8 16 8Z" fill="white"/>
  <path d="M24 20C24 22.2091 22.2091 24 20 24H12C9.79086 24 8 22.2091 8 20C8 17.7909 9.79086 16 12 16H20C22.2091 16 24 17.7909 24 20Z" fill="white"/>
  <circle cx="16" cy="12" r="2" fill="#8B5CF6"/>
  <circle cx="16" cy="20" r="2" fill="#8B5CF6"/>
</svg> 