<?xml version="1.0" standalone="no"?>
<!DOCTYPE svg PUBLIC "-//W3C//DTD SVG 20010904//EN"
 "http://www.w3.org/TR/2001/REC-SVG-20010904/DTD/svg10.dtd">
<svg version="1.0" xmlns="http://www.w3.org/2000/svg"
 width="906.000000pt" height="206.000000pt" viewBox="0 0 906.000000 206.000000"
 preserveAspectRatio="xMidYMid meet">

<g transform="translate(0.000000,206.000000) scale(0.100000,-0.100000)"
fill="#000000" stroke="none">
<path d="M463 1966 c-96 -31 -157 -68 -223 -135 -62 -63 -124 -170 -114 -196
5 -12 14 -4 35 35 15 28 27 57 25 63 -1 7 -1 8 2 4 5 -10 32 12 32 25 0 6 -7
5 -15 -2 -8 -7 -15 -8 -15 -2 0 5 7 15 15 22 12 10 15 10 15 0 0 -9 7 -7 22 6
14 12 10 3 -10 -22 -50 -65 -101 -182 -118 -272 -36 -190 39 -361 261 -597
l66 -70 -60 74 c-34 41 -61 80 -61 88 0 7 -22 47 -50 87 -63 92 -97 167 -111
242 -12 65 -3 176 12 153 7 -10 8 -5 3 14 -4 18 -2 27 6 27 6 0 9 8 6 18 -3 9
-1 24 4 32 5 8 10 11 10 6 0 -6 12 15 27 45 25 51 121 157 188 207 17 12 52
29 79 37 59 18 210 21 186 4 -12 -8 -10 -9 8 -4 41 12 118 -23 169 -76 66 -69
82 -97 117 -211 l32 -100 67 106 c77 119 137 177 215 206 75 28 251 23 335 -9
78 -31 152 -92 204 -169 58 -87 85 -174 91 -299 8 -174 -40 -280 -189 -417
-79 -73 -180 -140 -369 -241 -339 -183 -440 -240 -531 -300 -99 -66 -232 -183
-271 -239 -15 -20 -4 -13 29 21 114 112 273 202 828 468 349 166 530 332 591
540 29 96 24 268 -9 370 -90 273 -318 429 -601 412 -121 -7 -198 -38 -300
-122 l-55 -44 -20 32 c-105 169 -351 250 -558 183z m311 -18 c73 -24 158 -79
188 -121 20 -28 15 -26 -33 15 -114 97 -259 135 -407 106 -97 -19 -192 -63
-258 -119 l-49 -43 45 48 c117 123 339 173 514 114z m-619 -269 c-13 -24 -25
-40 -25 -36 0 13 41 89 46 84 2 -2 -7 -24 -21 -48z m24 -85 c-11 -25 -27 -73
-34 -107 -7 -34 -14 -50 -14 -36 -1 30 25 122 45 162 23 44 25 31 3 -19z m-31
-309 c0 -16 -2 -15 -8 5 -4 14 -8 36 -8 50 0 22 1 22 8 -5 4 -16 8 -39 8 -50z
m35 -87 c14 -32 24 -58 22 -58 -6 0 -41 70 -50 100 -11 37 -1 22 28 -42z"/>
<path d="M6315 1494 c-157 -33 -251 -94 -290 -186 -24 -59 -20 -155 10 -215
45 -89 120 -131 342 -188 152 -39 255 -84 279 -120 62 -95 -10 -201 -154 -225
-132 -22 -286 23 -337 98 -14 21 -30 54 -36 75 l-10 37 -76 0 -76 0 7 -47 c15
-110 86 -201 200 -254 77 -36 148 -50 257 -50 133 0 206 20 297 79 78 51 112
114 112 210 0 170 -76 232 -383 312 -87 22 -175 49 -196 60 -58 29 -91 74 -91
122 0 58 26 95 90 126 48 23 67 27 150 26 77 0 105 -4 145 -22 81 -37 125 -90
125 -152 l0 -30 75 0 75 0 0 33 c0 66 -29 134 -79 189 -54 59 -107 89 -196
113 -54 14 -191 19 -240 9z"/>
<path d="M8380 1493 c-133 -22 -273 -120 -328 -230 -49 -96 -57 -141 -57 -303
0 -136 3 -163 23 -222 61 -175 174 -276 350 -314 297 -62 546 78 623 351 22
78 19 315 -5 385 -62 182 -168 285 -337 325 -59 13 -209 18 -269 8z m285 -167
c135 -63 203 -203 193 -400 -9 -164 -66 -266 -182 -326 -67 -34 -73 -35 -180
-35 -92 0 -119 4 -157 22 -146 66 -221 232 -198 438 19 177 113 294 261 325
71 15 205 3 263 -24z"/>
<path d="M2530 960 l0 -520 350 0 350 0 0 65 0 65 -275 0 -275 0 0 455 0 455
-75 0 -75 0 0 -520z"/>
<path d="M3390 1415 l0 -65 75 0 75 0 0 -390 0 -390 -75 0 -75 0 0 -65 0 -65
220 0 220 0 0 65 0 65 -70 0 -70 0 0 390 0 390 70 0 70 0 0 65 0 65 -220 0
-220 0 0 -65z"/>
<path d="M4080 960 l0 -520 75 0 75 0 0 174 0 175 81 73 c44 40 83 74 87 75 4
2 92 -110 196 -247 l190 -250 88 0 c55 0 88 4 88 10 0 6 -99 142 -220 302
-122 160 -222 294 -223 298 -1 3 94 98 211 210 116 111 212 206 212 211 0 5
-45 9 -100 9 l-100 0 -198 -202 c-110 -112 -221 -227 -247 -255 -26 -29 -51
-53 -56 -53 -5 0 -9 115 -9 255 l0 255 -75 0 -75 0 0 -520z"/>
<path d="M5110 960 l0 -520 370 0 370 0 0 60 0 60 -295 0 -295 0 0 170 0 170
220 0 220 0 0 65 0 65 -220 0 -220 0 0 160 0 160 285 0 285 0 0 65 0 65 -360
0 -360 0 0 -520z"/>
<path d="M7390 1415 l0 -65 70 0 70 0 0 -390 0 -390 -70 0 -70 0 0 -65 0 -65
215 0 215 0 0 65 0 65 -70 0 -70 0 0 390 0 390 70 0 70 0 0 65 0 65 -215 0
-215 0 0 -65z"/>
<path d="M162 1390 c0 -19 2 -27 5 -17 2 9 2 25 0 35 -3 9 -5 1 -5 -18z"/>
<path d="M230 1160 c6 -11 13 -20 16 -20 2 0 0 9 -6 20 -6 11 -13 20 -16 20
-2 0 0 -9 6 -20z"/>
<path d="M260 1110 c6 -11 13 -20 16 -20 2 0 0 9 -6 20 -6 11 -13 20 -16 20
-2 0 0 -9 6 -20z"/>
<path d="M7011 604 c-14 -18 -21 -41 -21 -69 0 -64 29 -95 89 -95 65 0 91 27
91 96 0 67 -27 94 -92 94 -38 0 -50 -5 -67 -26z"/>
</g>
</svg>
